# xmcd
#
# Track frame offsets:
# 150
# 19980
# 39333
# 60988
# 81933
# 100850
# 122060
# 139759
#
# Disc length: 2110 seconds
#
# Revision: 0
# Processed by: cddbd v1.4PL0 Copyright (c) Steve Scherf et al.
# Submitted via: Audion 3.0.2 (http://www.panic.com/audion/)
#
DISCID=61083c08
DTITLE=Guy Lobe - Guy Lobe
DYEAR=1900
DGENRE=
TTITLE0=Moundj'am
TTITLE1=Waka Waka
TTITLE2=Andolo
TTITLE3=A'te
TTITLE4=Captain Song
TTITLE5=Sesse
TTITLE6=A sou dje
TTITLE7=Ma'bani
EXTD=
EXTT0=
EXTT1=
EXTT2=
EXTT3=
EXTT4=
EXTT5=
EXTT6=
EXTT7=
PLAYORDER=
